# xmcd CD database file
#
# Track frame offsets:
#	150
#	24568
#	55765
#	76193
#	112772
#	142856
#	171070
#
# Disc length: 2674 seconds
#
# Revision: 0
# Processed by: cddbd v1.5.2PL0 Copyright (c) Steve Scherf et al.
# Submitted via: CDex 1.70beta2
#
DISCID=460a7007
DTITLE=Grzech Piotrowski Quartet - Archipelago
DYEAR=2011
DGENRE=Jazz
TTITLE0=Archipelago
TTITLE1=Clouds Part I
TTITLE2=Clouds Part II
TTITLE3=Bird
TTITLE4=Emoq
TTITLE5=Icicle
TTITLE6=Daw
EXTD=YEAR: 2011
EXTT0=
EXTT1=
EXTT2=
EXTT3=
EXTT4=
EXTT5=
EXTT6=
PLAYORDER=
